{
	"asset":{
		"generator":"Khronos glTF Blender I/O v4.2.70",
		"version":"2.0"
	},
	"scene":0,
	"scenes":[
		{
			"name":"Scene",
			"nodes":[
				0,
				1,
				2,
				3,
				4,
				5,
				6,
				7,
				8,
				9,
				10,
				11,
				12
			]
		}
	],
	"nodes":[
		{
			"camera":0,
			"name":"Camera",
			"rotation":[
				-0.20997299253940582,
				0.3857799470424652,
				0.09062844514846802,
				0.8937962055206299
			],
			"translation":[
				7.358891487121582,
				4.958309173583984,
				6.925790786743164
			]
		},
		{
			"mesh":0,
			"name":"olhos",
			"scale":[
				-0.3056396245956421,
				-0.20127934217453003,
				-0.20127934217453003
			],
			"translation":[
				0.7263644933700562,
				0,
				0.32718682289123535
			]
		},
		{
			"mesh":1,
			"name":"tentaculo.dir",
			"rotation":[
				0.4726429879665375,
				0.19203881919384003,
				-0.19825339317321777,
				0.8369143009185791
			],
			"scale":[
				0.23882770538330078,
				0.14492568373680115,
				0.26867589354515076
			],
			"translation":[
				-0.11740399897098541,
				-0.4843118488788605,
				-0.11740399897098541
			]
		},
		{
			"mesh":2,
			"name":"tentaculo.esq",
			"rotation":[
				-0.133405864238739,
				0.4317023456096649,
				0.8681735396385193,
				0.20520883798599243
			],
			"scale":[
				-0.23882770538330078,
				-0.14492568373680115,
				-0.26867589354515076
			],
			"translation":[
				-0.11740399897098541,
				-0.4868127107620239,
				0.14624600112438202
			]
		},
		{
			"mesh":3,
			"name":"pupilas",
			"rotation":[
				0,
				0,
				-0.07769390940666199,
				0.9969773292541504
			],
			"scale":[
				-0.04699372500181198,
				-0.07177387177944183,
				-0.04741562530398369
			],
			"translation":[
				1.0004240274429321,
				-0.04855084791779518,
				0.33475878834724426
			]
		},
		{
			"name":"ciliu.dir",
			"rotation":[
				0.8008720278739929,
				0.28106582164764404,
				-0.3005701005458832,
				0.43504443764686584
			],
			"scale":[
				-0.16854368150234222,
				-0.29388585686683655,
				-0.23951397836208344
			],
			"translation":[
				0.8362483978271484,
				0.13807618618011475,
				-0.4562879502773285
			]
		},
		{
			"name":"cilius.esq",
			"rotation":[
				-0.2650495767593384,
				0.77715665102005,
				0.47611677646636963,
				0.3147842288017273
			],
			"scale":[
				0.16854366660118103,
				0.29388585686683655,
				0.23951397836208344
			],
			"translation":[
				0.8264480829238892,
				0.13807618618011475,
				0.4808371663093567
			]
		},
		{
			"mesh":4,
			"name":"sobrancelhas",
			"rotation":[
				-0.9798675179481506,
				0,
				0,
				0.19964878261089325
			],
			"scale":[
				-0.11774399876594543,
				-0.09652885794639587,
				-0.07037899643182755
			],
			"translation":[
				0.8113192319869995,
				0.19177773594856262,
				0.4461400508880615
			]
		},
		{
			"mesh":5,
			"name":"corpo",
			"translation":[
				0,
				0.05750046670436859,
				0
			]
		},
		{
			"mesh":6,
			"name":"laco.central",
			"scale":[
				0.16329528391361237,
				0.14038680493831635,
				0.14098019897937775
			],
			"translation":[
				0.7802585363388062,
				0.6804203391075134,
				-0.19967740774154663
			]
		},
		{
			"mesh":7,
			"name":"laco.dir",
			"rotation":[
				-0.01884557120501995,
				-0.018170036375522614,
				0.7196449637413025,
				0.6938486695289612
			],
			"scale":[
				0.16965381801128387,
				0.06380161643028259,
				0.16239269077777863
			],
			"translation":[
				0.8111068606376648,
				0.628630518913269,
				-0.427779883146286
			]
		},
		{
			"mesh":8,
			"name":"laco.esq",
			"rotation":[
				0,
				0,
				0.7198916077613831,
				0.694086492061615
			],
			"scale":[
				0.16965381801128387,
				0.06380162388086319,
				0.16239269077777863
			],
			"translation":[
				0.75984126329422,
				0.7995162010192871,
				-0.038786083459854126
			]
		},
		{
			"mesh":9,
			"name":"boca",
			"rotation":[
				0.9874786138534546,
				-0.1558620184659958,
				0.013303152285516262,
				0.02040184661746025
			],
			"scale":[
				-0.15573334693908691,
				-0.1282871812582016,
				-0.15095973014831543
			],
			"translation":[
				0.7630534172058105,
				-0.3858841359615326,
				0.03552912548184395
			]
		}
	],
	"cameras":[
		{
			"name":"Camera",
			"perspective":{
				"aspectRatio":1.7777777777777777,
				"yfov":0.39959652046304894,
				"zfar":100,
				"znear":0.10000000149011612
			},
			"type":"perspective"
		}
	],
	"materials":[
		{
			"doubleSided":true,
			"name":"Material.003",
			"pbrMetallicRoughness":{
				"baseColorFactor":[
					0.8000074625015259,
					0.7365784049034119,
					0.7178126573562622,
					1
				],
				"metallicFactor":0,
				"roughnessFactor":0.5
			}
		},
		{
			"doubleSided":true,
			"name":"Material.001",
			"pbrMetallicRoughness":{
				"baseColorFactor":[
					0.42868494987487793,
					0.21585622429847717,
					0.3967532515525818,
					1
				],
				"metallicFactor":0,
				"roughnessFactor":0.5
			}
		},
		{
			"doubleSided":true,
			"name":"Material.002",
			"pbrMetallicRoughness":{
				"baseColorFactor":[
					0.42868494987487793,
					0.2122267186641693,
					0.3967532515525818,
					1
				],
				"metallicFactor":0,
				"roughnessFactor":0.5
			}
		},
		{
			"doubleSided":true,
			"name":"Material.005",
			"pbrMetallicRoughness":{
				"baseColorFactor":[
					0,
					0,
					0,
					1
				],
				"metallicFactor":0,
				"roughnessFactor":0.5
			}
		},
		{
			"doubleSided":true,
			"name":"Material.012",
			"pbrMetallicRoughness":{
				"baseColorFactor":[
					0.8009701371192932,
					0.17486248910427094,
					0.730972409248352,
					1
				],
				"metallicFactor":0,
				"roughnessFactor":0.5
			}
		},
		{
			"doubleSided":true,
			"name":"Material.013",
			"pbrMetallicRoughness":{
				"baseColorFactor":[
					0.8009701371192932,
					0.17486248910427094,
					0.730972409248352,
					1
				],
				"metallicFactor":0,
				"roughnessFactor":0.5
			}
		},
		{
			"doubleSided":true,
			"name":"Material.007",
			"pbrMetallicRoughness":{
				"baseColorFactor":[
					0.8003778457641602,
					0.16386014223098755,
					0.6347780227661133,
					1
				],
				"metallicFactor":0,
				"roughnessFactor":0.5
			}
		},
		{
			"doubleSided":true,
			"name":"Material.008",
			"pbrMetallicRoughness":{
				"baseColorFactor":[
					0.332449346780777,
					0.0021243353839963675,
					0.7991030812263489,
					1
				],
				"metallicFactor":0,
				"roughnessFactor":0.5
			}
		},
		{
			"doubleSided":true,
			"name":"Material.009",
			"pbrMetallicRoughness":{
				"baseColorFactor":[
					0.332449346780777,
					0.0021243353839963675,
					0.7991030812263489,
					1
				],
				"metallicFactor":0,
				"roughnessFactor":0.5
			}
		},
		{
			"doubleSided":true,
			"name":"-0.117404 m",
			"pbrMetallicRoughness":{
				"baseColorFactor":[
					0.332449346780777,
					0.0021243353839963675,
					0.7991030812263489,
					1
				],
				"metallicFactor":0,
				"roughnessFactor":0.5
			}
		},
		{
			"doubleSided":true,
			"name":"Material",
			"pbrMetallicRoughness":{
				"baseColorFactor":[
					0.8008443117141724,
					0.026741262525320053,
					0.2131757140159607,
					1
				],
				"metallicFactor":0,
				"roughnessFactor":0.5
			}
		}
	],
	"meshes":[
		{
			"name":"Sphere",
			"primitives":[
				{
					"attributes":{
						"POSITION":0,
						"NORMAL":1,
						"TEXCOORD_0":2,
						"TANGENT":3
					},
					"indices":4,
					"material":0
				}
			]
		},
		{
			"name":"Icosphere.019",
			"primitives":[
				{
					"attributes":{
						"POSITION":5,
						"NORMAL":6,
						"TEXCOORD_0":7,
						"TANGENT":8
					},
					"indices":9,
					"material":1
				}
			]
		},
		{
			"name":"Icosphere.021",
			"primitives":[
				{
					"attributes":{
						"POSITION":10,
						"NORMAL":11,
						"TEXCOORD_0":12,
						"TANGENT":13
					},
					"indices":9,
					"material":2
				}
			]
		},
		{
			"name":"Sphere.003",
			"primitives":[
				{
					"attributes":{
						"POSITION":14,
						"NORMAL":15,
						"TEXCOORD_0":16,
						"TANGENT":17
					},
					"indices":18,
					"material":3
				}
			]
		},
		{
			"name":"Torus",
			"primitives":[
				{
					"attributes":{
						"POSITION":19,
						"NORMAL":20,
						"TEXCOORD_0":21,
						"TANGENT":22
					},
					"indices":23,
					"material":4
				},
				{
					"attributes":{
						"POSITION":24,
						"NORMAL":25,
						"TEXCOORD_0":26,
						"TANGENT":27
					},
					"indices":28,
					"material":5
				}
			]
		},
		{
			"name":"Sphere.001",
			"primitives":[
				{
					"attributes":{
						"POSITION":29,
						"NORMAL":30,
						"TEXCOORD_0":31,
						"TANGENT":32
					},
					"indices":33,
					"material":6
				}
			]
		},
		{
			"name":"Sphere.002",
			"primitives":[
				{
					"attributes":{
						"POSITION":34,
						"NORMAL":35,
						"TEXCOORD_0":36,
						"TANGENT":37
					},
					"indices":38,
					"material":7
				}
			]
		},
		{
			"name":"Sphere.004",
			"primitives":[
				{
					"attributes":{
						"POSITION":39,
						"NORMAL":40,
						"TEXCOORD_0":41,
						"TANGENT":42
					},
					"indices":38,
					"material":8
				}
			]
		},
		{
			"name":"Sphere.005",
			"primitives":[
				{
					"attributes":{
						"POSITION":43,
						"NORMAL":44,
						"TEXCOORD_0":45,
						"TANGENT":46
					},
					"indices":38,
					"material":9
				}
			]
		},
		{
			"name":"Torus.002",
			"primitives":[
				{
					"attributes":{
						"POSITION":47,
						"NORMAL":48,
						"TEXCOORD_0":49,
						"TANGENT":50
					},
					"indices":23,
					"material":10
				}
			]
		}
	],
	"accessors":[
		{
			"bufferView":0,
			"componentType":5126,
			"count":3968,
			"max":[
				0.9999997019767761,
				1,
				4.130211353302002
			],
			"min":[
				-0.9999992847442627,
				-1,
				-1
			],
			"type":"VEC3"
		},
		{
			"bufferView":1,
			"componentType":5126,
			"count":3968,
			"type":"VEC3"
		},
		{
			"bufferView":2,
			"componentType":5126,
			"count":3968,
			"type":"VEC2"
		},
		{
			"bufferView":3,
			"componentType":5126,
			"count":3968,
			"type":"VEC4"
		},
		{
			"bufferView":4,
			"componentType":5123,
			"count":5760,
			"type":"SCALAR"
		},
		{
			"bufferView":5,
			"componentType":5126,
			"count":13440,
			"max":[
				5.9998884201049805,
				2.59171724319458,
				3.5002381801605225
			],
			"min":[
				-0.9510578513145447,
				-14.168156623840332,
				-3.3793768882751465
			],
			"type":"VEC3"
		},
		{
			"bufferView":6,
			"componentType":5126,
			"count":13440,
			"type":"VEC3"
		},
		{
			"bufferView":7,
			"componentType":5126,
			"count":13440,
			"type":"VEC2"
		},
		{
			"bufferView":8,
			"componentType":5126,
			"count":13440,
			"type":"VEC4"
		},
		{
			"bufferView":9,
			"componentType":5123,
			"count":13440,
			"type":"SCALAR"
		},
		{
			"bufferView":10,
			"componentType":5126,
			"count":13440,
			"max":[
				5.9998884201049805,
				2.59171724319458,
				3.5002381801605225
			],
			"min":[
				-0.9510578513145447,
				-14.168156623840332,
				-3.3793768882751465
			],
			"type":"VEC3"
		},
		{
			"bufferView":11,
			"componentType":5126,
			"count":13440,
			"type":"VEC3"
		},
		{
			"bufferView":12,
			"componentType":5126,
			"count":13440,
			"type":"VEC2"
		},
		{
			"bufferView":13,
			"componentType":5126,
			"count":13440,
			"type":"VEC4"
		},
		{
			"bufferView":14,
			"componentType":5126,
			"count":3968,
			"max":[
				1.0000015497207642,
				1,
				15.077399253845215
			],
			"min":[
				-0.9999990463256836,
				-1,
				-1
			],
			"type":"VEC3"
		},
		{
			"bufferView":15,
			"componentType":5126,
			"count":3968,
			"type":"VEC3"
		},
		{
			"bufferView":16,
			"componentType":5126,
			"count":3968,
			"type":"VEC2"
		},
		{
			"bufferView":17,
			"componentType":5126,
			"count":3968,
			"type":"VEC4"
		},
		{
			"bufferView":18,
			"componentType":5123,
			"count":5760,
			"type":"SCALAR"
		},
		{
			"bufferView":19,
			"componentType":5126,
			"count":2304,
			"max":[
				1.25,
				0.25,
				1.25
			],
			"min":[
				-1.25,
				-0.25,
				-1.25
			],
			"type":"VEC3"
		},
		{
			"bufferView":20,
			"componentType":5126,
			"count":2304,
			"type":"VEC3"
		},
		{
			"bufferView":21,
			"componentType":5126,
			"count":2304,
			"type":"VEC2"
		},
		{
			"bufferView":22,
			"componentType":5126,
			"count":2304,
			"type":"VEC4"
		},
		{
			"bufferView":23,
			"componentType":5123,
			"count":3456,
			"type":"SCALAR"
		},
		{
			"bufferView":24,
			"componentType":5126,
			"count":2304,
			"max":[
				1.1627941131591797,
				-2.9668238162994385,
				-10.469636917114258
			],
			"min":[
				-1.3372058868408203,
				-4.448630332946777,
				-12.45844841003418
			],
			"type":"VEC3"
		},
		{
			"bufferView":25,
			"componentType":5126,
			"count":2304,
			"type":"VEC3"
		},
		{
			"bufferView":26,
			"componentType":5126,
			"count":2304,
			"type":"VEC2"
		},
		{
			"bufferView":27,
			"componentType":5126,
			"count":2304,
			"type":"VEC4"
		},
		{
			"bufferView":28,
			"componentType":5123,
			"count":3456,
			"type":"SCALAR"
		},
		{
			"bufferView":29,
			"componentType":5126,
			"count":1984,
			"max":[
				0.9999997019767761,
				1,
				0.9999993443489075
			],
			"min":[
				-0.9999990463256836,
				-1,
				-1
			],
			"type":"VEC3"
		},
		{
			"bufferView":30,
			"componentType":5126,
			"count":1984,
			"type":"VEC3"
		},
		{
			"bufferView":31,
			"componentType":5126,
			"count":1984,
			"type":"VEC2"
		},
		{
			"bufferView":32,
			"componentType":5126,
			"count":1984,
			"type":"VEC4"
		},
		{
			"bufferView":33,
			"componentType":5123,
			"count":2880,
			"type":"SCALAR"
		},
		{
			"bufferView":34,
			"componentType":5126,
			"count":1984,
			"max":[
				0.9999997019767761,
				1,
				0.9999993443489075
			],
			"min":[
				-0.9999990463256836,
				-1,
				-1
			],
			"type":"VEC3"
		},
		{
			"bufferView":35,
			"componentType":5126,
			"count":1984,
			"type":"VEC3"
		},
		{
			"bufferView":36,
			"componentType":5126,
			"count":1984,
			"type":"VEC2"
		},
		{
			"bufferView":37,
			"componentType":5126,
			"count":1984,
			"type":"VEC4"
		},
		{
			"bufferView":38,
			"componentType":5123,
			"count":2880,
			"type":"SCALAR"
		},
		{
			"bufferView":39,
			"componentType":5126,
			"count":1984,
			"max":[
				0.9999997019767761,
				1,
				0.9999993443489075
			],
			"min":[
				-0.9999990463256836,
				-1,
				-1
			],
			"type":"VEC3"
		},
		{
			"bufferView":40,
			"componentType":5126,
			"count":1984,
			"type":"VEC3"
		},
		{
			"bufferView":41,
			"componentType":5126,
			"count":1984,
			"type":"VEC2"
		},
		{
			"bufferView":42,
			"componentType":5126,
			"count":1984,
			"type":"VEC4"
		},
		{
			"bufferView":43,
			"componentType":5126,
			"count":1984,
			"max":[
				0.9999997019767761,
				1,
				0.9999993443489075
			],
			"min":[
				-0.9999990463256836,
				-1,
				-1
			],
			"type":"VEC3"
		},
		{
			"bufferView":44,
			"componentType":5126,
			"count":1984,
			"type":"VEC3"
		},
		{
			"bufferView":45,
			"componentType":5126,
			"count":1984,
			"type":"VEC2"
		},
		{
			"bufferView":46,
			"componentType":5126,
			"count":1984,
			"type":"VEC4"
		},
		{
			"bufferView":47,
			"componentType":5126,
			"count":2304,
			"max":[
				1.25,
				0.25,
				1.25
			],
			"min":[
				-1.25,
				-0.25,
				-1.25
			],
			"type":"VEC3"
		},
		{
			"bufferView":48,
			"componentType":5126,
			"count":2304,
			"type":"VEC3"
		},
		{
			"bufferView":49,
			"componentType":5126,
			"count":2304,
			"type":"VEC2"
		},
		{
			"bufferView":50,
			"componentType":5126,
			"count":2304,
			"type":"VEC4"
		}
	],
	"bufferViews":[
		{
			"buffer":0,
			"byteLength":47616,
			"byteOffset":0,
			"target":34962
		},
		{
			"buffer":0,
			"byteLength":47616,
			"byteOffset":47616,
			"target":34962
		},
		{
			"buffer":0,
			"byteLength":31744,
			"byteOffset":95232,
			"target":34962
		},
		{
			"buffer":0,
			"byteLength":63488,
			"byteOffset":126976,
			"target":34962
		},
		{
			"buffer":0,
			"byteLength":11520,
			"byteOffset":190464,
			"target":34963
		},
		{
			"buffer":0,
			"byteLength":161280,
			"byteOffset":201984,
			"target":34962
		},
		{
			"buffer":0,
			"byteLength":161280,
			"byteOffset":363264,
			"target":34962
		},
		{
			"buffer":0,
			"byteLength":107520,
			"byteOffset":524544,
			"target":34962
		},
		{
			"buffer":0,
			"byteLength":215040,
			"byteOffset":632064,
			"target":34962
		},
		{
			"buffer":0,
			"byteLength":26880,
			"byteOffset":847104,
			"target":34963
		},
		{
			"buffer":0,
			"byteLength":161280,
			"byteOffset":873984,
			"target":34962
		},
		{
			"buffer":0,
			"byteLength":161280,
			"byteOffset":1035264,
			"target":34962
		},
		{
			"buffer":0,
			"byteLength":107520,
			"byteOffset":1196544,
			"target":34962
		},
		{
			"buffer":0,
			"byteLength":215040,
			"byteOffset":1304064,
			"target":34962
		},
		{
			"buffer":0,
			"byteLength":47616,
			"byteOffset":1519104,
			"target":34962
		},
		{
			"buffer":0,
			"byteLength":47616,
			"byteOffset":1566720,
			"target":34962
		},
		{
			"buffer":0,
			"byteLength":31744,
			"byteOffset":1614336,
			"target":34962
		},
		{
			"buffer":0,
			"byteLength":63488,
			"byteOffset":1646080,
			"target":34962
		},
		{
			"buffer":0,
			"byteLength":11520,
			"byteOffset":1709568,
			"target":34963
		},
		{
			"buffer":0,
			"byteLength":27648,
			"byteOffset":1721088,
			"target":34962
		},
		{
			"buffer":0,
			"byteLength":27648,
			"byteOffset":1748736,
			"target":34962
		},
		{
			"buffer":0,
			"byteLength":18432,
			"byteOffset":1776384,
			"target":34962
		},
		{
			"buffer":0,
			"byteLength":36864,
			"byteOffset":1794816,
			"target":34962
		},
		{
			"buffer":0,
			"byteLength":6912,
			"byteOffset":1831680,
			"target":34963
		},
		{
			"buffer":0,
			"byteLength":27648,
			"byteOffset":1838592,
			"target":34962
		},
		{
			"buffer":0,
			"byteLength":27648,
			"byteOffset":1866240,
			"target":34962
		},
		{
			"buffer":0,
			"byteLength":18432,
			"byteOffset":1893888,
			"target":34962
		},
		{
			"buffer":0,
			"byteLength":36864,
			"byteOffset":1912320,
			"target":34962
		},
		{
			"buffer":0,
			"byteLength":6912,
			"byteOffset":1949184,
			"target":34963
		},
		{
			"buffer":0,
			"byteLength":23808,
			"byteOffset":1956096,
			"target":34962
		},
		{
			"buffer":0,
			"byteLength":23808,
			"byteOffset":1979904,
			"target":34962
		},
		{
			"buffer":0,
			"byteLength":15872,
			"byteOffset":2003712,
			"target":34962
		},
		{
			"buffer":0,
			"byteLength":31744,
			"byteOffset":2019584,
			"target":34962
		},
		{
			"buffer":0,
			"byteLength":5760,
			"byteOffset":2051328,
			"target":34963
		},
		{
			"buffer":0,
			"byteLength":23808,
			"byteOffset":2057088,
			"target":34962
		},
		{
			"buffer":0,
			"byteLength":23808,
			"byteOffset":2080896,
			"target":34962
		},
		{
			"buffer":0,
			"byteLength":15872,
			"byteOffset":2104704,
			"target":34962
		},
		{
			"buffer":0,
			"byteLength":31744,
			"byteOffset":2120576,
			"target":34962
		},
		{
			"buffer":0,
			"byteLength":5760,
			"byteOffset":2152320,
			"target":34963
		},
		{
			"buffer":0,
			"byteLength":23808,
			"byteOffset":2158080,
			"target":34962
		},
		{
			"buffer":0,
			"byteLength":23808,
			"byteOffset":2181888,
			"target":34962
		},
		{
			"buffer":0,
			"byteLength":15872,
			"byteOffset":2205696,
			"target":34962
		},
		{
			"buffer":0,
			"byteLength":31744,
			"byteOffset":2221568,
			"target":34962
		},
		{
			"buffer":0,
			"byteLength":23808,
			"byteOffset":2253312,
			"target":34962
		},
		{
			"buffer":0,
			"byteLength":23808,
			"byteOffset":2277120,
			"target":34962
		},
		{
			"buffer":0,
			"byteLength":15872,
			"byteOffset":2300928,
			"target":34962
		},
		{
			"buffer":0,
			"byteLength":31744,
			"byteOffset":2316800,
			"target":34962
		},
		{
			"buffer":0,
			"byteLength":27648,
			"byteOffset":2348544,
			"target":34962
		},
		{
			"buffer":0,
			"byteLength":27648,
			"byteOffset":2376192,
			"target":34962
		},
		{
			"buffer":0,
			"byteLength":18432,
			"byteOffset":2403840,
			"target":34962
		},
		{
			"buffer":0,
			"byteLength":36864,
			"byteOffset":2422272,
			"target":34962
		}
	],
	"buffers":[
		{
			"byteLength":2459136,
			"uri":"polvinha-25915b9be614c3c8bf11abdb64891175.bin"
		}
	]
}
