{
	"asset":{
		"generator":"Khronos glTF Blender I/O v4.2.70",
		"version":"2.0"
	},
	"scene":0,
	"scenes":[
		{
			"name":"Scene",
			"nodes":[
				0,
				1,
				2,
				3,
				4,
				5,
				6,
				7,
				8,
				9,
				10,
				11,
				12,
				13,
				14,
				15
			]
		}
	],
	"nodes":[
		{
			"mesh":0,
			"name":"corpo",
			"scale":[
				1.5,
				1.5003677606582642,
				1.5003677606582642
			]
		},
		{
			"mesh":1,
			"name":"olhoE",
			"rotation":[
				0,
				0,
				-0.9995320439338684,
				0.0305913258343935
			],
			"scale":[
				-0.09919197112321854,
				-0.3060000240802765,
				-0.2029999941587448
			],
			"translation":[
				1.3581000566482544,
				0.47936001420021057,
				0.6221799850463867
			]
		},
		{
			"mesh":2,
			"name":"olhoD",
			"rotation":[
				0,
				0,
				-0.9995319843292236,
				0.030591322109103203
			],
			"scale":[
				-0.09914519637823105,
				-0.3061785101890564,
				-0.2025706022977829
			],
			"translation":[
				1.3581435680389404,
				0.47935938835144043,
				-0.6221843361854553
			]
		},
		{
			"mesh":3,
			"name":"pupilaD",
			"rotation":[
				0,
				0,
				0.9999993443489075,
				0.001168663497082889
			],
			"scale":[
				-0.03196750581264496,
				-0.17828699946403503,
				-0.11733900010585785
			],
			"translation":[
				1.449842929840088,
				0.3983880579471588,
				-0.589783251285553
			]
		},
		{
			"mesh":4,
			"name":"pupilaE",
			"rotation":[
				0,
				0,
				0.9999993443489075,
				0.001168663497082889
			],
			"scale":[
				-0.031967997550964355,
				-0.17828699946403503,
				-0.11733900010585785
			],
			"translation":[
				1.4498000144958496,
				0.398389995098114,
				0.5897799730300903
			]
		},
		{
			"mesh":5,
			"name":"tentaculo",
			"rotation":[
				0,
				0,
				-1,
				0
			],
			"scale":[
				-0.41200965642929077,
				-0.9219788908958435,
				-0.4116431772708893
			],
			"translation":[
				0.7098957300186157,
				-1.5533595085144043,
				0.8503439426422119
			]
		},
		{
			"mesh":6,
			"name":"tentaculo.001",
			"rotation":[
				0,
				0,
				-1,
				0
			],
			"scale":[
				-0.41200965642929077,
				-0.9219788908958435,
				-0.4116431772708893
			],
			"translation":[
				0.7952145338058472,
				-1.5533595085144043,
				-0.7387732267379761
			]
		},
		{
			"mesh":7,
			"name":"tentaculo.002",
			"rotation":[
				0,
				0,
				-1,
				0
			],
			"scale":[
				-0.41200965642929077,
				-0.9219788908958435,
				-0.4116431772708893
			],
			"translation":[
				-0.106101393699646,
				-1.5533595085144043,
				1.0931742191314697
			]
		},
		{
			"mesh":8,
			"name":"tentaculo.003",
			"rotation":[
				0,
				0,
				-1,
				0
			],
			"scale":[
				-0.41200965642929077,
				-0.9219788908958435,
				-0.4116431772708893
			],
			"translation":[
				-0.7427105903625488,
				-1.5533595085144043,
				-0.7715882062911987
			]
		},
		{
			"mesh":9,
			"name":"tentaculo.004",
			"rotation":[
				0,
				0,
				-1,
				0
			],
			"scale":[
				-0.41200965642929077,
				-0.9219788908958435,
				-0.4116431772708893
			],
			"translation":[
				1.0577337741851807,
				-1.5533595085144043,
				0.06934908032417297
			]
		},
		{
			"mesh":10,
			"name":"tentaculo.005",
			"rotation":[
				0,
				0,
				-1,
				0
			],
			"scale":[
				-0.41200965642929077,
				-0.9219788908958435,
				-0.4116431772708893
			],
			"translation":[
				-0.8455310463905334,
				-1.5533595085144043,
				0.7387732863426208
			]
		},
		{
			"mesh":11,
			"name":"tentaculo.006",
			"rotation":[
				0,
				0,
				-1,
				0
			],
			"scale":[
				-0.41200965642929077,
				-0.9219788908958435,
				-0.4116431772708893
			],
			"translation":[
				-1.0828920602798462,
				-1.5533595085144043,
				-0.029095694422721863
			]
		},
		{
			"mesh":12,
			"name":"tentaculo.007",
			"rotation":[
				0,
				0,
				-1,
				0
			],
			"scale":[
				-0.41200965642929077,
				-0.9219788908958435,
				-0.4116431772708893
			],
			"translation":[
				0.026251928880810738,
				-1.5533595085144043,
				-1.098861813545227
			]
		},
		{
			"name":"boca",
			"rotation":[
				-0.3060843050479889,
				-0.663471519947052,
				-0.2572164833545685,
				0.6324220895767212
			],
			"scale":[
				0.8276216983795166,
				0.850371778011322,
				0.6286007165908813
			],
			"translation":[
				1.0065511465072632,
				-0.08851958066225052,
				0.007770463824272156
			]
		},
		{
			"mesh":13,
			"name":"bone",
			"translation":[
				0,
				1.1658718585968018,
				0
			]
		},
		{
			"mesh":14,
			"name":"bone.001",
			"rotation":[
				0,
				0.14883580803871155,
				0,
				0.9888619184494019
			],
			"scale":[
				1.1223098039627075,
				0.07621175795793533,
				0.8756529092788696
			],
			"translation":[
				0.5972312092781067,
				1.1320024728775024,
				-0.2752079367637634
			]
		}
	],
	"materials":[
		{
			"doubleSided":true,
			"name":"corCorpo",
			"pbrMetallicRoughness":{
				"baseColorFactor":[
					0.01943800039589405,
					0.04227722808718681,
					0.8004969358444214,
					1
				],
				"metallicFactor":0
			}
		},
		{
			"doubleSided":true,
			"name":"corOlhoD",
			"pbrMetallicRoughness":{
				"metallicFactor":0
			}
		},
		{
			"doubleSided":true,
			"name":"corPupilaD",
			"pbrMetallicRoughness":{
				"baseColorFactor":[
					0,
					0,
					0,
					1
				],
				"metallicFactor":0,
				"roughnessFactor":0.5
			}
		},
		{
			"doubleSided":true,
			"name":"corPupilaE",
			"pbrMetallicRoughness":{
				"baseColorFactor":[
					0,
					0,
					0,
					1
				],
				"metallicFactor":0,
				"roughnessFactor":0.5
			}
		},
		{
			"doubleSided":true,
			"name":"corTentaculo",
			"pbrMetallicRoughness":{
				"baseColorFactor":[
					0.01899999938905239,
					0.041999999433755875,
					0.800000011920929,
					1
				],
				"metallicFactor":0,
				"roughnessFactor":0.5
			}
		},
		{
			"doubleSided":true,
			"name":"corTentaculo.008",
			"pbrMetallicRoughness":{
				"baseColorFactor":[
					0.01899999938905239,
					0.041999999433755875,
					0.800000011920929,
					1
				],
				"metallicFactor":0,
				"roughnessFactor":0.5
			}
		},
		{
			"doubleSided":true,
			"name":"corTentaculo.009",
			"pbrMetallicRoughness":{
				"baseColorFactor":[
					0.01899999938905239,
					0.041999999433755875,
					0.800000011920929,
					1
				],
				"metallicFactor":0,
				"roughnessFactor":0.5
			}
		},
		{
			"doubleSided":true,
			"name":"corTentaculo.010",
			"pbrMetallicRoughness":{
				"baseColorFactor":[
					0.01899999938905239,
					0.041999999433755875,
					0.800000011920929,
					1
				],
				"metallicFactor":0,
				"roughnessFactor":0.5
			}
		},
		{
			"doubleSided":true,
			"name":"corTentaculo.011",
			"pbrMetallicRoughness":{
				"baseColorFactor":[
					0.01899999938905239,
					0.041999999433755875,
					0.800000011920929,
					1
				],
				"metallicFactor":0,
				"roughnessFactor":0.5
			}
		},
		{
			"doubleSided":true,
			"name":"corTentaculo.012",
			"pbrMetallicRoughness":{
				"baseColorFactor":[
					0.01899999938905239,
					0.041999999433755875,
					0.800000011920929,
					1
				],
				"metallicFactor":0,
				"roughnessFactor":0.5
			}
		},
		{
			"doubleSided":true,
			"name":"corTentaculo.013",
			"pbrMetallicRoughness":{
				"baseColorFactor":[
					0.01899999938905239,
					0.041999999433755875,
					0.800000011920929,
					1
				],
				"metallicFactor":0,
				"roughnessFactor":0.5
			}
		},
		{
			"doubleSided":true,
			"name":"corTentaculo.015",
			"pbrMetallicRoughness":{
				"baseColorFactor":[
					0.01899999938905239,
					0.041999999433755875,
					0.800000011920929,
					1
				],
				"metallicFactor":0,
				"roughnessFactor":0.5
			}
		},
		{
			"doubleSided":true,
			"name":"corBone",
			"pbrMetallicRoughness":{
				"baseColorFactor":[
					0.009063384495675564,
					0.42450448870658875,
					0.18600675463676453,
					1
				]
			}
		},
		{
			"doubleSided":true,
			"name":"corBone.001",
			"pbrMetallicRoughness":{
				"baseColorFactor":[
					0.009063384495675564,
					0.42450448870658875,
					0.18600675463676453,
					1
				]
			}
		}
	],
	"meshes":[
		{
			"name":"Sphere",
			"primitives":[
				{
					"attributes":{
						"POSITION":0,
						"NORMAL":1,
						"TEXCOORD_0":2,
						"TANGENT":3
					},
					"indices":4,
					"material":0
				}
			]
		},
		{
			"name":"Sphere.001",
			"primitives":[
				{
					"attributes":{
						"POSITION":5,
						"NORMAL":6,
						"TEXCOORD_0":7,
						"TANGENT":8
					},
					"indices":4
				}
			]
		},
		{
			"name":"Sphere.002",
			"primitives":[
				{
					"attributes":{
						"POSITION":9,
						"NORMAL":10,
						"TEXCOORD_0":11,
						"TANGENT":12
					},
					"indices":4,
					"material":1
				}
			]
		},
		{
			"name":"Sphere.003",
			"primitives":[
				{
					"attributes":{
						"POSITION":13,
						"NORMAL":14,
						"TEXCOORD_0":15,
						"TANGENT":16
					},
					"indices":4,
					"material":2
				}
			]
		},
		{
			"name":"Sphere.004",
			"primitives":[
				{
					"attributes":{
						"POSITION":17,
						"NORMAL":18,
						"TEXCOORD_0":19,
						"TANGENT":20
					},
					"indices":4,
					"material":3
				}
			]
		},
		{
			"name":"Sphere.005",
			"primitives":[
				{
					"attributes":{
						"POSITION":21,
						"NORMAL":22,
						"TEXCOORD_0":23,
						"TANGENT":24
					},
					"indices":25,
					"material":4
				}
			]
		},
		{
			"name":"Sphere.013",
			"primitives":[
				{
					"attributes":{
						"POSITION":26,
						"NORMAL":27,
						"TEXCOORD_0":28,
						"TANGENT":29
					},
					"indices":25,
					"material":5
				}
			]
		},
		{
			"name":"Sphere.014",
			"primitives":[
				{
					"attributes":{
						"POSITION":30,
						"NORMAL":31,
						"TEXCOORD_0":32,
						"TANGENT":33
					},
					"indices":25,
					"material":6
				}
			]
		},
		{
			"name":"Sphere.015",
			"primitives":[
				{
					"attributes":{
						"POSITION":34,
						"NORMAL":35,
						"TEXCOORD_0":36,
						"TANGENT":37
					},
					"indices":25,
					"material":7
				}
			]
		},
		{
			"name":"Sphere.016",
			"primitives":[
				{
					"attributes":{
						"POSITION":38,
						"NORMAL":39,
						"TEXCOORD_0":40,
						"TANGENT":41
					},
					"indices":25,
					"material":8
				}
			]
		},
		{
			"name":"Sphere.017",
			"primitives":[
				{
					"attributes":{
						"POSITION":42,
						"NORMAL":43,
						"TEXCOORD_0":44,
						"TANGENT":45
					},
					"indices":25,
					"material":9
				}
			]
		},
		{
			"name":"Sphere.018",
			"primitives":[
				{
					"attributes":{
						"POSITION":46,
						"NORMAL":47,
						"TEXCOORD_0":48,
						"TANGENT":49
					},
					"indices":25,
					"material":10
				}
			]
		},
		{
			"name":"Sphere.020",
			"primitives":[
				{
					"attributes":{
						"POSITION":50,
						"NORMAL":51,
						"TEXCOORD_0":52,
						"TANGENT":53
					},
					"indices":25,
					"material":11
				}
			]
		},
		{
			"name":"Sphere.022",
			"primitives":[
				{
					"attributes":{
						"POSITION":54,
						"NORMAL":55,
						"TEXCOORD_0":56,
						"TANGENT":57
					},
					"indices":58,
					"material":12
				}
			]
		},
		{
			"name":"Sphere.023",
			"primitives":[
				{
					"attributes":{
						"POSITION":59,
						"NORMAL":60,
						"TEXCOORD_0":61,
						"TANGENT":62
					},
					"indices":58,
					"material":13
				}
			]
		}
	],
	"accessors":[
		{
			"bufferView":0,
			"componentType":5126,
			"count":1984,
			"max":[
				0.9999997019767761,
				1,
				0.9999993443489075
			],
			"min":[
				-0.9999990463256836,
				-1,
				-1
			],
			"type":"VEC3"
		},
		{
			"bufferView":1,
			"componentType":5126,
			"count":1984,
			"type":"VEC3"
		},
		{
			"bufferView":2,
			"componentType":5126,
			"count":1984,
			"type":"VEC2"
		},
		{
			"bufferView":3,
			"componentType":5126,
			"count":1984,
			"type":"VEC4"
		},
		{
			"bufferView":4,
			"componentType":5123,
			"count":2880,
			"type":"SCALAR"
		},
		{
			"bufferView":5,
			"componentType":5126,
			"count":1984,
			"max":[
				0.9999997019767761,
				1,
				0.9999993443489075
			],
			"min":[
				-0.9999990463256836,
				-1,
				-1
			],
			"type":"VEC3"
		},
		{
			"bufferView":6,
			"componentType":5126,
			"count":1984,
			"type":"VEC3"
		},
		{
			"bufferView":7,
			"componentType":5126,
			"count":1984,
			"type":"VEC2"
		},
		{
			"bufferView":8,
			"componentType":5126,
			"count":1984,
			"type":"VEC4"
		},
		{
			"bufferView":9,
			"componentType":5126,
			"count":1984,
			"max":[
				0.9999997019767761,
				1,
				0.9999993443489075
			],
			"min":[
				-0.9999990463256836,
				-1,
				-1
			],
			"type":"VEC3"
		},
		{
			"bufferView":10,
			"componentType":5126,
			"count":1984,
			"type":"VEC3"
		},
		{
			"bufferView":11,
			"componentType":5126,
			"count":1984,
			"type":"VEC2"
		},
		{
			"bufferView":12,
			"componentType":5126,
			"count":1984,
			"type":"VEC4"
		},
		{
			"bufferView":13,
			"componentType":5126,
			"count":1984,
			"max":[
				0.9999997019767761,
				1,
				0.9999993443489075
			],
			"min":[
				-0.9999990463256836,
				-1,
				-1
			],
			"type":"VEC3"
		},
		{
			"bufferView":14,
			"componentType":5126,
			"count":1984,
			"type":"VEC3"
		},
		{
			"bufferView":15,
			"componentType":5126,
			"count":1984,
			"type":"VEC2"
		},
		{
			"bufferView":16,
			"componentType":5126,
			"count":1984,
			"type":"VEC4"
		},
		{
			"bufferView":17,
			"componentType":5126,
			"count":1984,
			"max":[
				0.9999997019767761,
				1,
				0.9999993443489075
			],
			"min":[
				-0.9999990463256836,
				-1,
				-1
			],
			"type":"VEC3"
		},
		{
			"bufferView":18,
			"componentType":5126,
			"count":1984,
			"type":"VEC3"
		},
		{
			"bufferView":19,
			"componentType":5126,
			"count":1984,
			"type":"VEC2"
		},
		{
			"bufferView":20,
			"componentType":5126,
			"count":1984,
			"type":"VEC4"
		},
		{
			"bufferView":21,
			"componentType":5126,
			"count":1984,
			"max":[
				0.9999997019767761,
				1,
				0.9999993443489075
			],
			"min":[
				-0.9999990463256836,
				-1,
				-1
			],
			"type":"VEC3"
		},
		{
			"bufferView":22,
			"componentType":5126,
			"count":1984,
			"type":"VEC3"
		},
		{
			"bufferView":23,
			"componentType":5126,
			"count":1984,
			"type":"VEC2"
		},
		{
			"bufferView":24,
			"componentType":5126,
			"count":1984,
			"type":"VEC4"
		},
		{
			"bufferView":25,
			"componentType":5123,
			"count":2880,
			"type":"SCALAR"
		},
		{
			"bufferView":26,
			"componentType":5126,
			"count":1984,
			"max":[
				0.9999997019767761,
				1,
				0.9999993443489075
			],
			"min":[
				-0.9999990463256836,
				-1,
				-1
			],
			"type":"VEC3"
		},
		{
			"bufferView":27,
			"componentType":5126,
			"count":1984,
			"type":"VEC3"
		},
		{
			"bufferView":28,
			"componentType":5126,
			"count":1984,
			"type":"VEC2"
		},
		{
			"bufferView":29,
			"componentType":5126,
			"count":1984,
			"type":"VEC4"
		},
		{
			"bufferView":30,
			"componentType":5126,
			"count":1984,
			"max":[
				0.9999997019767761,
				1,
				0.9999993443489075
			],
			"min":[
				-0.9999990463256836,
				-1,
				-1
			],
			"type":"VEC3"
		},
		{
			"bufferView":31,
			"componentType":5126,
			"count":1984,
			"type":"VEC3"
		},
		{
			"bufferView":32,
			"componentType":5126,
			"count":1984,
			"type":"VEC2"
		},
		{
			"bufferView":33,
			"componentType":5126,
			"count":1984,
			"type":"VEC4"
		},
		{
			"bufferView":34,
			"componentType":5126,
			"count":1984,
			"max":[
				0.9999997019767761,
				1,
				0.9999993443489075
			],
			"min":[
				-0.9999990463256836,
				-1,
				-1
			],
			"type":"VEC3"
		},
		{
			"bufferView":35,
			"componentType":5126,
			"count":1984,
			"type":"VEC3"
		},
		{
			"bufferView":36,
			"componentType":5126,
			"count":1984,
			"type":"VEC2"
		},
		{
			"bufferView":37,
			"componentType":5126,
			"count":1984,
			"type":"VEC4"
		},
		{
			"bufferView":38,
			"componentType":5126,
			"count":1984,
			"max":[
				0.9999997019767761,
				1,
				0.9999993443489075
			],
			"min":[
				-0.9999990463256836,
				-1,
				-1
			],
			"type":"VEC3"
		},
		{
			"bufferView":39,
			"componentType":5126,
			"count":1984,
			"type":"VEC3"
		},
		{
			"bufferView":40,
			"componentType":5126,
			"count":1984,
			"type":"VEC2"
		},
		{
			"bufferView":41,
			"componentType":5126,
			"count":1984,
			"type":"VEC4"
		},
		{
			"bufferView":42,
			"componentType":5126,
			"count":1984,
			"max":[
				0.9999997019767761,
				1,
				0.9999993443489075
			],
			"min":[
				-0.9999990463256836,
				-1,
				-1
			],
			"type":"VEC3"
		},
		{
			"bufferView":43,
			"componentType":5126,
			"count":1984,
			"type":"VEC3"
		},
		{
			"bufferView":44,
			"componentType":5126,
			"count":1984,
			"type":"VEC2"
		},
		{
			"bufferView":45,
			"componentType":5126,
			"count":1984,
			"type":"VEC4"
		},
		{
			"bufferView":46,
			"componentType":5126,
			"count":1984,
			"max":[
				0.9999997019767761,
				1,
				0.9999993443489075
			],
			"min":[
				-0.9999990463256836,
				-1,
				-1
			],
			"type":"VEC3"
		},
		{
			"bufferView":47,
			"componentType":5126,
			"count":1984,
			"type":"VEC3"
		},
		{
			"bufferView":48,
			"componentType":5126,
			"count":1984,
			"type":"VEC2"
		},
		{
			"bufferView":49,
			"componentType":5126,
			"count":1984,
			"type":"VEC4"
		},
		{
			"bufferView":50,
			"componentType":5126,
			"count":1984,
			"max":[
				0.9999997019767761,
				1,
				0.9999993443489075
			],
			"min":[
				-0.9999990463256836,
				-1,
				-1
			],
			"type":"VEC3"
		},
		{
			"bufferView":51,
			"componentType":5126,
			"count":1984,
			"type":"VEC3"
		},
		{
			"bufferView":52,
			"componentType":5126,
			"count":1984,
			"type":"VEC2"
		},
		{
			"bufferView":53,
			"componentType":5126,
			"count":1984,
			"type":"VEC4"
		},
		{
			"bufferView":54,
			"componentType":5126,
			"count":1984,
			"max":[
				0.9999997019767761,
				1,
				0.9999993443489075
			],
			"min":[
				-0.9999990463256836,
				-1,
				-1
			],
			"type":"VEC3"
		},
		{
			"bufferView":55,
			"componentType":5126,
			"count":1984,
			"type":"VEC3"
		},
		{
			"bufferView":56,
			"componentType":5126,
			"count":1984,
			"type":"VEC2"
		},
		{
			"bufferView":57,
			"componentType":5126,
			"count":1984,
			"type":"VEC4"
		},
		{
			"bufferView":58,
			"componentType":5123,
			"count":2880,
			"type":"SCALAR"
		},
		{
			"bufferView":59,
			"componentType":5126,
			"count":1984,
			"max":[
				0.9999997019767761,
				1,
				0.9999993443489075
			],
			"min":[
				-0.9999990463256836,
				-1,
				-1
			],
			"type":"VEC3"
		},
		{
			"bufferView":60,
			"componentType":5126,
			"count":1984,
			"type":"VEC3"
		},
		{
			"bufferView":61,
			"componentType":5126,
			"count":1984,
			"type":"VEC2"
		},
		{
			"bufferView":62,
			"componentType":5126,
			"count":1984,
			"type":"VEC4"
		}
	],
	"bufferViews":[
		{
			"buffer":0,
			"byteLength":23808,
			"byteOffset":0,
			"target":34962
		},
		{
			"buffer":0,
			"byteLength":23808,
			"byteOffset":23808,
			"target":34962
		},
		{
			"buffer":0,
			"byteLength":15872,
			"byteOffset":47616,
			"target":34962
		},
		{
			"buffer":0,
			"byteLength":31744,
			"byteOffset":63488,
			"target":34962
		},
		{
			"buffer":0,
			"byteLength":5760,
			"byteOffset":95232,
			"target":34963
		},
		{
			"buffer":0,
			"byteLength":23808,
			"byteOffset":100992,
			"target":34962
		},
		{
			"buffer":0,
			"byteLength":23808,
			"byteOffset":124800,
			"target":34962
		},
		{
			"buffer":0,
			"byteLength":15872,
			"byteOffset":148608,
			"target":34962
		},
		{
			"buffer":0,
			"byteLength":31744,
			"byteOffset":164480,
			"target":34962
		},
		{
			"buffer":0,
			"byteLength":23808,
			"byteOffset":196224,
			"target":34962
		},
		{
			"buffer":0,
			"byteLength":23808,
			"byteOffset":220032,
			"target":34962
		},
		{
			"buffer":0,
			"byteLength":15872,
			"byteOffset":243840,
			"target":34962
		},
		{
			"buffer":0,
			"byteLength":31744,
			"byteOffset":259712,
			"target":34962
		},
		{
			"buffer":0,
			"byteLength":23808,
			"byteOffset":291456,
			"target":34962
		},
		{
			"buffer":0,
			"byteLength":23808,
			"byteOffset":315264,
			"target":34962
		},
		{
			"buffer":0,
			"byteLength":15872,
			"byteOffset":339072,
			"target":34962
		},
		{
			"buffer":0,
			"byteLength":31744,
			"byteOffset":354944,
			"target":34962
		},
		{
			"buffer":0,
			"byteLength":23808,
			"byteOffset":386688,
			"target":34962
		},
		{
			"buffer":0,
			"byteLength":23808,
			"byteOffset":410496,
			"target":34962
		},
		{
			"buffer":0,
			"byteLength":15872,
			"byteOffset":434304,
			"target":34962
		},
		{
			"buffer":0,
			"byteLength":31744,
			"byteOffset":450176,
			"target":34962
		},
		{
			"buffer":0,
			"byteLength":23808,
			"byteOffset":481920,
			"target":34962
		},
		{
			"buffer":0,
			"byteLength":23808,
			"byteOffset":505728,
			"target":34962
		},
		{
			"buffer":0,
			"byteLength":15872,
			"byteOffset":529536,
			"target":34962
		},
		{
			"buffer":0,
			"byteLength":31744,
			"byteOffset":545408,
			"target":34962
		},
		{
			"buffer":0,
			"byteLength":5760,
			"byteOffset":577152,
			"target":34963
		},
		{
			"buffer":0,
			"byteLength":23808,
			"byteOffset":582912,
			"target":34962
		},
		{
			"buffer":0,
			"byteLength":23808,
			"byteOffset":606720,
			"target":34962
		},
		{
			"buffer":0,
			"byteLength":15872,
			"byteOffset":630528,
			"target":34962
		},
		{
			"buffer":0,
			"byteLength":31744,
			"byteOffset":646400,
			"target":34962
		},
		{
			"buffer":0,
			"byteLength":23808,
			"byteOffset":678144,
			"target":34962
		},
		{
			"buffer":0,
			"byteLength":23808,
			"byteOffset":701952,
			"target":34962
		},
		{
			"buffer":0,
			"byteLength":15872,
			"byteOffset":725760,
			"target":34962
		},
		{
			"buffer":0,
			"byteLength":31744,
			"byteOffset":741632,
			"target":34962
		},
		{
			"buffer":0,
			"byteLength":23808,
			"byteOffset":773376,
			"target":34962
		},
		{
			"buffer":0,
			"byteLength":23808,
			"byteOffset":797184,
			"target":34962
		},
		{
			"buffer":0,
			"byteLength":15872,
			"byteOffset":820992,
			"target":34962
		},
		{
			"buffer":0,
			"byteLength":31744,
			"byteOffset":836864,
			"target":34962
		},
		{
			"buffer":0,
			"byteLength":23808,
			"byteOffset":868608,
			"target":34962
		},
		{
			"buffer":0,
			"byteLength":23808,
			"byteOffset":892416,
			"target":34962
		},
		{
			"buffer":0,
			"byteLength":15872,
			"byteOffset":916224,
			"target":34962
		},
		{
			"buffer":0,
			"byteLength":31744,
			"byteOffset":932096,
			"target":34962
		},
		{
			"buffer":0,
			"byteLength":23808,
			"byteOffset":963840,
			"target":34962
		},
		{
			"buffer":0,
			"byteLength":23808,
			"byteOffset":987648,
			"target":34962
		},
		{
			"buffer":0,
			"byteLength":15872,
			"byteOffset":1011456,
			"target":34962
		},
		{
			"buffer":0,
			"byteLength":31744,
			"byteOffset":1027328,
			"target":34962
		},
		{
			"buffer":0,
			"byteLength":23808,
			"byteOffset":1059072,
			"target":34962
		},
		{
			"buffer":0,
			"byteLength":23808,
			"byteOffset":1082880,
			"target":34962
		},
		{
			"buffer":0,
			"byteLength":15872,
			"byteOffset":1106688,
			"target":34962
		},
		{
			"buffer":0,
			"byteLength":31744,
			"byteOffset":1122560,
			"target":34962
		},
		{
			"buffer":0,
			"byteLength":23808,
			"byteOffset":1154304,
			"target":34962
		},
		{
			"buffer":0,
			"byteLength":23808,
			"byteOffset":1178112,
			"target":34962
		},
		{
			"buffer":0,
			"byteLength":15872,
			"byteOffset":1201920,
			"target":34962
		},
		{
			"buffer":0,
			"byteLength":31744,
			"byteOffset":1217792,
			"target":34962
		},
		{
			"buffer":0,
			"byteLength":23808,
			"byteOffset":1249536,
			"target":34962
		},
		{
			"buffer":0,
			"byteLength":23808,
			"byteOffset":1273344,
			"target":34962
		},
		{
			"buffer":0,
			"byteLength":15872,
			"byteOffset":1297152,
			"target":34962
		},
		{
			"buffer":0,
			"byteLength":31744,
			"byteOffset":1313024,
			"target":34962
		},
		{
			"buffer":0,
			"byteLength":5760,
			"byteOffset":1344768,
			"target":34963
		},
		{
			"buffer":0,
			"byteLength":23808,
			"byteOffset":1350528,
			"target":34962
		},
		{
			"buffer":0,
			"byteLength":23808,
			"byteOffset":1374336,
			"target":34962
		},
		{
			"buffer":0,
			"byteLength":15872,
			"byteOffset":1398144,
			"target":34962
		},
		{
			"buffer":0,
			"byteLength":31744,
			"byteOffset":1414016,
			"target":34962
		}
	],
	"buffers":[
		{
			"byteLength":1445760,
			"uri":"polvinho_new-916cfbf18a9f0f10bbf8bfe2fbf780db.bin"
		}
	]
}
